Coordinates
version=1
nRows=12
nColumns=34
inDegrees=yes

Units are S.I. units (second, meters, Newtons, ...)
If the header above contains a line with 'inDegrees', this indicates whether rotational values are in degrees (yes) or radians (no).

endheader
time	pelvis_tilt	pelvis_list	pelvis_rotation	pelvis_tx	pelvis_ty	pelvis_tz	hip_flexion_l	hip_adduction_l	hip_rotation_l	hip_flexion_r	hip_adduction_r	hip_rotation_r	knee_angle_l_beta	knee_angle_r_beta	knee_angle_l	knee_angle_r	ankle_angle_l	ankle_angle_r	subtalar_angle_l	subtalar_angle_r	mtp_angle_l	mtp_angle_r	lumbar_ext	lumbar_bend	lumbar_rota	shoulder_flexion_r	shoulder_adduction_r	shoulder_rotation_r	elbow_flexion_r	shoulder_flexion_l	shoulder_adduction_l	shoulder_rotation_l	elbow_flexion_l
      0.38000000	     15.61277968	      1.01480292	     -4.67260120	      0.26504781	      0.97818966	     -0.18457907	    -15.53045267	      6.71586161	      5.88963074	      5.43063833	     -4.30913510	     -1.40498032	      0.12872987	      0.87433191	     -7.37567845	    -50.09552829	      7.27797149	      7.17679374	     -0.21543621	      4.59582515	     -4.36872075	      3.91500067	    -28.09853775	     -2.44243669	      3.06320097	     -3.69625479	      4.68147645	    -31.83012032	     41.46108335	      2.17286066	      1.64041642	    -14.67001234	     39.17350323
      0.39000000	     15.98332040	      0.49445898	     -4.46786179	      0.27478856	      0.97896910	     -0.18486032	    -16.93820840	      6.14333280	      5.49669441	      5.47952853	     -3.65262517	     -1.86850931	      0.11708370	      0.83281559	     -6.70840165	    -47.71681853	      7.64283683	      7.37028474	      0.55533360	      3.35415716	     -3.83349347	      0.46367436	    -28.60613832	     -1.86262881	      3.61164551	     -4.22689050	      4.64977945	    -32.50946922	     42.07175532	      2.83573227	      1.55555532	    -13.67533288	     39.45093163
      0.40000000	     15.79537408	      0.32916384	     -4.12730463	      0.28436639	      0.97853910	     -0.18536729	    -17.58928933	      5.89733145	      5.72223014	      6.17026445	     -3.38826181	     -2.49406489	      0.10952689	      0.79056704	     -6.27542852	    -45.29615489	      7.97144837	      7.72394896	      0.62000160	      2.23909475	     -3.78697926	     -0.13003282	    -28.51964322	     -1.54682874	      3.40637090	     -4.45274010	      4.59626806	    -32.64461934	     42.21017903	      3.12269460	      1.37559333	    -13.05539945	     40.24297854
      0.41000000	     16.50243586	     -0.35483347	     -3.66414975	      0.29419691	      0.97960333	     -0.18577287	    -19.32827859	      5.09202310	      5.63131463	      5.49064053	     -2.55431976	     -3.27783999	      0.09993218	      0.73664045	     -5.72569214	    -42.20638871	      8.43763898	      7.24814295	      1.18853759	      0.59624596	     -3.57023691	     -2.52531543	    -29.38240796	     -0.74105491	      3.62743401	     -4.85380456	      4.54825160	    -33.03752544	     42.73119831	      3.67369321	      1.29090117	    -12.33477486	     40.69691740
      0.42000000	     16.55790809	     -0.64266918	     -3.19349850	      0.30389404	      0.97926826	     -0.18623980	    -20.18378406	      4.66804504	      5.93585545	      5.62331260	     -2.14542306	     -4.07613758	      0.09508032	      0.68507355	     -5.44770100	    -39.25182326	      8.98889472	      7.17711953	      1.32281324	     -0.46741442	     -3.48055178	     -3.51889926	    -29.55002173	     -0.28067500	      3.45416460	     -5.09069155	      4.51498374	    -33.16972051	     42.85659318	      4.00097181	      1.08972725	    -11.50044124	     41.43181248
      0.43000000	     16.99888246	     -1.12118629	     -2.80067329	      0.31369306	      0.97937397	     -0.18635495	    -21.50435312	      4.05005286	      5.85656745	      5.15171092	     -1.44633511	     -4.71454564	      0.08898604	      0.62852826	     -5.09852441	    -36.01201673	      9.50944523	      7.06424558	      1.97576138	     -1.52953406	     -3.13449284	     -6.80744780	    -30.10201345	      0.26407184	      3.89141858	     -5.58463711	      4.52849289	    -33.67334320	     43.34101474	      4.67573382	      0.98893035	    -10.49916753	     41.76952421
      0.44000000	     17.33530164	     -1.44425422	     -2.29496639	      0.32357238	      0.97914944	     -0.18672633	    -22.64743702	      3.56768577	      6.11516216	      4.70574740	     -0.94601254	     -5.45482968	      0.08480732	      0.56854284	     -4.85910175	    -32.57510511	      9.92660594	      6.77385295	      2.03706092	     -2.30758312	     -3.17132040	     -7.42651548	    -30.54486840	      0.75702491	      3.72909343	     -5.83820130	      4.51286409	    -33.80305794	     43.57163232	      5.01563536	      0.86884397	    -10.01305523	     42.47744552
      0.45000000	     17.43719623	     -1.67804037	     -1.89748378	      0.33352682	      0.97830431	     -0.18676202	    -23.45709751	      3.18845907	      6.38825657	      4.50096499	     -0.50146697	     -6.11059920	      0.08364013	      0.50870921	     -4.79222627	    -29.14689046	     10.57315765	      6.64444260	      2.10812070	     -2.76489017	     -3.15897293	     -7.91525247	    -30.70040945	      1.09769493	      3.59976686	     -6.04541318	      4.53379775	    -33.99494153	     43.61560585	      5.30729405	      0.66195681	     -9.28674781	     43.20545858
      0.46000000	     17.82871298	     -1.97698932	     -1.42478328	      0.34355303	      0.97779088	     -0.18679019	    -24.58379890	      2.70655960	      6.57490512	      3.82252266	      0.05725208	     -6.72710145	      0.08227270	      0.44463668	     -4.71387846	    -25.47580529	     11.09557811	      6.23636672	      2.46397409	     -3.12738501	     -3.16053222	     -8.45042322	    -31.17037490	      1.51290046	      3.64167193	     -6.38978328	      4.61518036	    -34.28835166	     43.93662630	      5.75578520	      0.55368630	     -8.68736288	     43.68546628
      0.47000000	     17.91520677	     -2.11973917	     -0.96328470	      0.35360872	      0.97657204	     -0.18682601	    -25.27326879	      2.38104617	      6.84338154	      3.49511302	      0.47408573	     -7.16160152	      0.08454883	      0.38266254	     -4.84429109	    -21.92494881	     11.81188115	      5.92525822	      2.60015033	     -3.17197711	     -3.10159529	     -8.70191548	    -31.28571445	      1.78162825	      3.54381348	     -6.63196157	      4.67377028	    -34.54101783	     43.93089942	      6.11455171	      0.39513312	     -7.96792908	     44.26362330
      0.48000000	     18.14941230	     -2.27123301	     -0.48769625	      0.36377207	      0.97542436	     -0.18678915	    -26.12482717	      2.02525792	      7.06698037	      2.91010292	      0.92929614	     -7.49737196	      0.08680169	      0.31917000	     -4.97337075	    -18.28709411	     12.43891244	      5.44292991	      2.96662835	     -3.09034741	     -3.02661135	     -8.70526765	    -31.55340074	      2.06741994	      3.51548967	     -6.94780121	      4.77917374	    -34.84967274	     44.12722444	      6.53329906	      0.28281591	     -7.34721256	     44.68192256
      0.49000000	     17.99031237	     -2.12214003	     -0.28729194	      0.37370430	      0.97347912	     -0.18638244	    -26.41319487	      2.09424669	      7.21946649	      2.88252781	      1.08646190	     -7.16685500	      0.09360253	      0.26163502	     -5.36302978	    -14.99058238	     13.10040836	      5.22321349	      3.02814799	     -2.68799641	     -2.92417398	     -8.70031560	    -31.42794369	      1.93963903	      3.41444905	     -7.11176226	      4.88694466	    -35.08602634	     44.04469433	      6.87677424	      0.15089274	     -6.85645896	     45.14228527
